0
SECTION
2
HEADER
9
$INSUNITS
70
4
0
ENDSEC
0
SECTION
2
TABLES
0
TABLE
2
LTYPE
0
LTYPE
72
65
70
64
2
CONTINUOUS
3
______
73
0
40
0
0
ENDTAB
0
TABLE
2
LAYER
0
ENDTAB
0
ENDSEC
0
SECTION
2
ENTITIES
0
LINE
8
0
10
3.025
20
-2.525
11
16.025
21
-2.525
0
LINE
8
0
10
3.025
20
-16.525
11
16.025
21
-16.525
0
LINE
8
0
10
2.525
20
-3.025
11
2.525
21
-16.025
0
LINE
8
0
10
16.525
20
-3.025
11
16.525
21
-16.025
0
ARC
8
0
10
3.025
20
-3.025
40
0.5
50
90
51
180
0
ARC
8
0
10
16.025
20
-3.025
40
0.5
50
0
51
90
0
ARC
8
0
10
3.025
20
-16.025
40
0.5
50
180
51
270
0
ARC
8
0
10
16.025
20
-16.025
40
0.5
50
270
51
0
0
LINE
8
0
10
41.125
20
-2.525
11
54.125
21
-2.525
0
LINE
8
0
10
41.125
20
-16.525
11
54.125
21
-16.525
0
LINE
8
0
10
40.625
20
-3.025
11
40.625
21
-16.025
0
LINE
8
0
10
54.625
20
-3.025
11
54.625
21
-16.025
0
ARC
8
0
10
41.125
20
-3.025
40
0.5
50
90
51
180
0
ARC
8
0
10
54.125
20
-3.025
40
0.5
50
0
51
90
0
ARC
8
0
10
41.125
20
-16.025
40
0.5
50
180
51
270
0
ARC
8
0
10
54.125
20
-16.025
40
0.5
50
270
51
0
0
LINE
8
0
10
60.175
20
-2.525
11
73.175
21
-2.525
0
LINE
8
0
10
60.175
20
-16.525
11
73.175
21
-16.525
0
LINE
8
0
10
59.675
20
-3.025
11
59.675
21
-16.025
0
LINE
8
0
10
73.675
20
-3.025
11
73.675
21
-16.025
0
ARC
8
0
10
60.175
20
-3.025
40
0.5
50
90
51
180
0
ARC
8
0
10
73.175
20
-3.025
40
0.5
50
0
51
90
0
ARC
8
0
10
60.175
20
-16.025
40
0.5
50
180
51
270
0
ARC
8
0
10
73.175
20
-16.025
40
0.5
50
270
51
0
0
LINE
8
0
10
79.225
20
-2.525
11
92.225
21
-2.525
0
LINE
8
0
10
79.225
20
-16.525
11
92.225
21
-16.525
0
LINE
8
0
10
78.725
20
-3.025
11
78.725
21
-16.025
0
LINE
8
0
10
92.725
20
-3.025
11
92.725
21
-16.025
0
ARC
8
0
10
79.225
20
-3.025
40
0.5
50
90
51
180
0
ARC
8
0
10
92.225
20
-3.025
40
0.5
50
0
51
90
0
ARC
8
0
10
79.225
20
-16.025
40
0.5
50
180
51
270
0
ARC
8
0
10
92.225
20
-16.025
40
0.5
50
270
51
0
0
LINE
8
0
10
98.275
20
-2.525
11
111.275
21
-2.525
0
LINE
8
0
10
98.275
20
-16.525
11
111.275
21
-16.525
0
LINE
8
0
10
97.775
20
-3.025
11
97.775
21
-16.025
0
LINE
8
0
10
111.775
20
-3.025
11
111.775
21
-16.025
0
ARC
8
0
10
98.275
20
-3.025
40
0.5
50
90
51
180
0
ARC
8
0
10
111.275
20
-3.025
40
0.5
50
0
51
90
0
ARC
8
0
10
98.275
20
-16.025
40
0.5
50
180
51
270
0
ARC
8
0
10
111.275
20
-16.025
40
0.5
50
270
51
0
0
LINE
8
0
10
126.85
20
-2.525
11
139.85
21
-2.525
0
LINE
8
0
10
126.85
20
-16.525
11
139.85
21
-16.525
0
LINE
8
0
10
126.35
20
-3.025
11
126.35
21
-16.025
0
LINE
8
0
10
140.35
20
-3.025
11
140.35
21
-16.025
0
ARC
8
0
10
126.85
20
-3.025
40
0.5
50
90
51
180
0
ARC
8
0
10
139.85
20
-3.025
40
0.5
50
0
51
90
0
ARC
8
0
10
126.85
20
-16.025
40
0.5
50
180
51
270
0
ARC
8
0
10
139.85
20
-16.025
40
0.5
50
270
51
0
0
LINE
8
0
10
145.9
20
-2.525
11
158.9
21
-2.525
0
LINE
8
0
10
145.9
20
-16.525
11
158.9
21
-16.525
0
LINE
8
0
10
145.4
20
-3.025
11
145.4
21
-16.025
0
LINE
8
0
10
159.4
20
-3.025
11
159.4
21
-16.025
0
ARC
8
0
10
145.9
20
-3.025
40
0.5
50
90
51
180
0
ARC
8
0
10
158.9
20
-3.025
40
0.5
50
0
51
90
0
ARC
8
0
10
145.9
20
-16.025
40
0.5
50
180
51
270
0
ARC
8
0
10
158.9
20
-16.025
40
0.5
50
270
51
0
0
LINE
8
0
10
164.95
20
-2.525
11
177.95
21
-2.525
0
LINE
8
0
10
164.95
20
-16.525
11
177.95
21
-16.525
0
LINE
8
0
10
164.45
20
-3.025
11
164.45
21
-16.025
0
LINE
8
0
10
178.45
20
-3.025
11
178.45
21
-16.025
0
ARC
8
0
10
164.95
20
-3.025
40
0.5
50
90
51
180
0
ARC
8
0
10
177.95
20
-3.025
40
0.5
50
0
51
90
0
ARC
8
0
10
164.95
20
-16.025
40
0.5
50
180
51
270
0
ARC
8
0
10
177.95
20
-16.025
40
0.5
50
270
51
0
0
LINE
8
0
10
184
20
-2.525
11
197
21
-2.525
0
LINE
8
0
10
184
20
-16.525
11
197
21
-16.525
0
LINE
8
0
10
183.5
20
-3.025
11
183.5
21
-16.025
0
LINE
8
0
10
197.5
20
-3.025
11
197.5
21
-16.025
0
ARC
8
0
10
184
20
-3.025
40
0.5
50
90
51
180
0
ARC
8
0
10
197
20
-3.025
40
0.5
50
0
51
90
0
ARC
8
0
10
184
20
-16.025
40
0.5
50
180
51
270
0
ARC
8
0
10
197
20
-16.025
40
0.5
50
270
51
0
0
LINE
8
0
10
212.575
20
-2.525
11
225.575
21
-2.525
0
LINE
8
0
10
212.575
20
-16.525
11
225.575
21
-16.525
0
LINE
8
0
10
212.075
20
-3.025
11
212.075
21
-16.025
0
LINE
8
0
10
226.075
20
-3.025
11
226.075
21
-16.025
0
ARC
8
0
10
212.575
20
-3.025
40
0.5
50
90
51
180
0
ARC
8
0
10
225.575
20
-3.025
40
0.5
50
0
51
90
0
ARC
8
0
10
212.575
20
-16.025
40
0.5
50
180
51
270
0
ARC
8
0
10
225.575
20
-16.025
40
0.5
50
270
51
0
0
LINE
8
0
10
231.625
20
-2.525
11
244.625
21
-2.525
0
LINE
8
0
10
231.625
20
-16.525
11
244.625
21
-16.525
0
LINE
8
0
10
231.125
20
-3.025
11
231.125
21
-16.025
0
LINE
8
0
10
245.125
20
-3.025
11
245.125
21
-16.025
0
ARC
8
0
10
231.625
20
-3.025
40
0.5
50
90
51
180
0
ARC
8
0
10
244.625
20
-3.025
40
0.5
50
0
51
90
0
ARC
8
0
10
231.625
20
-16.025
40
0.5
50
180
51
270
0
ARC
8
0
10
244.625
20
-16.025
40
0.5
50
270
51
0
0
LINE
8
0
10
250.675
20
-2.525
11
263.675
21
-2.525
0
LINE
8
0
10
250.675
20
-16.525
11
263.675
21
-16.525
0
LINE
8
0
10
250.175
20
-3.025
11
250.175
21
-16.025
0
LINE
8
0
10
264.175
20
-3.025
11
264.175
21
-16.025
0
ARC
8
0
10
250.675
20
-3.025
40
0.5
50
90
51
180
0
ARC
8
0
10
263.675
20
-3.025
40
0.5
50
0
51
90
0
ARC
8
0
10
250.675
20
-16.025
40
0.5
50
180
51
270
0
ARC
8
0
10
263.675
20
-16.025
40
0.5
50
270
51
0
0
LINE
8
0
10
269.725
20
-2.525
11
282.725
21
-2.525
0
LINE
8
0
10
269.725
20
-16.525
11
282.725
21
-16.525
0
LINE
8
0
10
269.225
20
-3.025
11
269.225
21
-16.025
0
LINE
8
0
10
283.225
20
-3.025
11
283.225
21
-16.025
0
ARC
8
0
10
269.725
20
-3.025
40
0.5
50
90
51
180
0
ARC
8
0
10
282.725
20
-3.025
40
0.5
50
0
51
90
0
ARC
8
0
10
269.725
20
-16.025
40
0.5
50
180
51
270
0
ARC
8
0
10
282.725
20
-16.025
40
0.5
50
270
51
0
0
LINE
8
0
10
298.3
20
-2.525
11
311.3
21
-2.525
0
LINE
8
0
10
298.3
20
-16.525
11
311.3
21
-16.525
0
LINE
8
0
10
297.8
20
-3.025
11
297.8
21
-16.025
0
LINE
8
0
10
311.8
20
-3.025
11
311.8
21
-16.025
0
ARC
8
0
10
298.3
20
-3.025
40
0.5
50
90
51
180
0
ARC
8
0
10
311.3
20
-3.025
40
0.5
50
0
51
90
0
ARC
8
0
10
298.3
20
-16.025
40
0.5
50
180
51
270
0
ARC
8
0
10
311.3
20
-16.025
40
0.5
50
270
51
0
0
LINE
8
0
10
3.025
20
-31.1
11
16.025
21
-31.1
0
LINE
8
0
10
3.025
20
-45.1
11
16.025
21
-45.1
0
LINE
8
0
10
2.525
20
-31.6
11
2.525
21
-44.6
0
LINE
8
0
10
16.525
20
-31.6
11
16.525
21
-44.6
0
ARC
8
0
10
3.025
20
-31.6
40
0.5
50
90
51
180
0
ARC
8
0
10
16.025
20
-31.6
40
0.5
50
0
51
90
0
ARC
8
0
10
3.025
20
-44.6
40
0.5
50
180
51
270
0
ARC
8
0
10
16.025
20
-44.6
40
0.5
50
270
51
0
0
LINE
8
0
10
22.075
20
-31.1
11
35.075
21
-31.1
0
LINE
8
0
10
22.075
20
-45.1
11
35.075
21
-45.1
0
LINE
8
0
10
21.575
20
-31.6
11
21.575
21
-44.6
0
LINE
8
0
10
35.575
20
-31.6
11
35.575
21
-44.6
0
ARC
8
0
10
22.075
20
-31.6
40
0.5
50
90
51
180
0
ARC
8
0
10
35.075
20
-31.6
40
0.5
50
0
51
90
0
ARC
8
0
10
22.075
20
-44.6
40
0.5
50
180
51
270
0
ARC
8
0
10
35.075
20
-44.6
40
0.5
50
270
51
0
0
LINE
8
0
10
41.125
20
-31.1
11
54.125
21
-31.1
0
LINE
8
0
10
41.125
20
-45.1
11
54.125
21
-45.1
0
LINE
8
0
10
40.625
20
-31.6
11
40.625
21
-44.6
0
LINE
8
0
10
54.625
20
-31.6
11
54.625
21
-44.6
0
ARC
8
0
10
41.125
20
-31.6
40
0.5
50
90
51
180
0
ARC
8
0
10
54.125
20
-31.6
40
0.5
50
0
51
90
0
ARC
8
0
10
41.125
20
-44.6
40
0.5
50
180
51
270
0
ARC
8
0
10
54.125
20
-44.6
40
0.5
50
270
51
0
0
LINE
8
0
10
60.175
20
-31.1
11
73.175
21
-31.1
0
LINE
8
0
10
60.175
20
-45.1
11
73.175
21
-45.1
0
LINE
8
0
10
59.675
20
-31.6
11
59.675
21
-44.6
0
LINE
8
0
10
73.675
20
-31.6
11
73.675
21
-44.6
0
ARC
8
0
10
60.175
20
-31.6
40
0.5
50
90
51
180
0
ARC
8
0
10
73.175
20
-31.6
40
0.5
50
0
51
90
0
ARC
8
0
10
60.175
20
-44.6
40
0.5
50
180
51
270
0
ARC
8
0
10
73.175
20
-44.6
40
0.5
50
270
51
0
0
LINE
8
0
10
79.225
20
-31.1
11
92.225
21
-31.1
0
LINE
8
0
10
79.225
20
-45.1
11
92.225
21
-45.1
0
LINE
8
0
10
78.725
20
-31.6
11
78.725
21
-44.6
0
LINE
8
0
10
92.725
20
-31.6
11
92.725
21
-44.6
0
ARC
8
0
10
79.225
20
-31.6
40
0.5
50
90
51
180
0
ARC
8
0
10
92.225
20
-31.6
40
0.5
50
0
51
90
0
ARC
8
0
10
79.225
20
-44.6
40
0.5
50
180
51
270
0
ARC
8
0
10
92.225
20
-44.6
40
0.5
50
270
51
0
0
LINE
8
0
10
98.275
20
-31.1
11
111.275
21
-31.1
0
LINE
8
0
10
98.275
20
-45.1
11
111.275
21
-45.1
0
LINE
8
0
10
97.775
20
-31.6
11
97.775
21
-44.6
0
LINE
8
0
10
111.775
20
-31.6
11
111.775
21
-44.6
0
ARC
8
0
10
98.275
20
-31.6
40
0.5
50
90
51
180
0
ARC
8
0
10
111.275
20
-31.6
40
0.5
50
0
51
90
0
ARC
8
0
10
98.275
20
-44.6
40
0.5
50
180
51
270
0
ARC
8
0
10
111.275
20
-44.6
40
0.5
50
270
51
0
0
LINE
8
0
10
117.325
20
-31.1
11
130.325
21
-31.1
0
LINE
8
0
10
117.325
20
-45.1
11
130.325
21
-45.1
0
LINE
8
0
10
116.825
20
-31.6
11
116.825
21
-44.6
0
LINE
8
0
10
130.825
20
-31.6
11
130.825
21
-44.6
0
ARC
8
0
10
117.325
20
-31.6
40
0.5
50
90
51
180
0
ARC
8
0
10
130.325
20
-31.6
40
0.5
50
0
51
90
0
ARC
8
0
10
117.325
20
-44.6
40
0.5
50
180
51
270
0
ARC
8
0
10
130.325
20
-44.6
40
0.5
50
270
51
0
0
LINE
8
0
10
136.375
20
-31.1
11
149.375
21
-31.1
0
LINE
8
0
10
136.375
20
-45.1
11
149.375
21
-45.1
0
LINE
8
0
10
135.875
20
-31.6
11
135.875
21
-44.6
0
LINE
8
0
10
149.875
20
-31.6
11
149.875
21
-44.6
0
ARC
8
0
10
136.375
20
-31.6
40
0.5
50
90
51
180
0
ARC
8
0
10
149.375
20
-31.6
40
0.5
50
0
51
90
0
ARC
8
0
10
136.375
20
-44.6
40
0.5
50
180
51
270
0
ARC
8
0
10
149.375
20
-44.6
40
0.5
50
270
51
0
0
LINE
8
0
10
155.425
20
-31.1
11
168.425
21
-31.1
0
LINE
8
0
10
155.425
20
-45.1
11
168.425
21
-45.1
0
LINE
8
0
10
154.925
20
-31.6
11
154.925
21
-44.6
0
LINE
8
0
10
168.925
20
-31.6
11
168.925
21
-44.6
0
ARC
8
0
10
155.425
20
-31.6
40
0.5
50
90
51
180
0
ARC
8
0
10
168.425
20
-31.6
40
0.5
50
0
51
90
0
ARC
8
0
10
155.425
20
-44.6
40
0.5
50
180
51
270
0
ARC
8
0
10
168.425
20
-44.6
40
0.5
50
270
51
0
0
LINE
8
0
10
174.475
20
-31.1
11
187.475
21
-31.1
0
LINE
8
0
10
174.475
20
-45.1
11
187.475
21
-45.1
0
LINE
8
0
10
173.975
20
-31.6
11
173.975
21
-44.6
0
LINE
8
0
10
187.975
20
-31.6
11
187.975
21
-44.6
0
ARC
8
0
10
174.475
20
-31.6
40
0.5
50
90
51
180
0
ARC
8
0
10
187.475
20
-31.6
40
0.5
50
0
51
90
0
ARC
8
0
10
174.475
20
-44.6
40
0.5
50
180
51
270
0
ARC
8
0
10
187.475
20
-44.6
40
0.5
50
270
51
0
0
LINE
8
0
10
193.525
20
-31.1
11
206.525
21
-31.1
0
LINE
8
0
10
193.525
20
-45.1
11
206.525
21
-45.1
0
LINE
8
0
10
193.025
20
-31.6
11
193.025
21
-44.6
0
LINE
8
0
10
207.025
20
-31.6
11
207.025
21
-44.6
0
ARC
8
0
10
193.525
20
-31.6
40
0.5
50
90
51
180
0
ARC
8
0
10
206.525
20
-31.6
40
0.5
50
0
51
90
0
ARC
8
0
10
193.525
20
-44.6
40
0.5
50
180
51
270
0
ARC
8
0
10
206.525
20
-44.6
40
0.5
50
270
51
0
0
LINE
8
0
10
212.575
20
-31.1
11
225.575
21
-31.1
0
LINE
8
0
10
212.575
20
-45.1
11
225.575
21
-45.1
0
LINE
8
0
10
212.075
20
-31.6
11
212.075
21
-44.6
0
LINE
8
0
10
226.075
20
-31.6
11
226.075
21
-44.6
0
ARC
8
0
10
212.575
20
-31.6
40
0.5
50
90
51
180
0
ARC
8
0
10
225.575
20
-31.6
40
0.5
50
0
51
90
0
ARC
8
0
10
212.575
20
-44.6
40
0.5
50
180
51
270
0
ARC
8
0
10
225.575
20
-44.6
40
0.5
50
270
51
0
0
LINE
8
0
10
231.625
20
-31.1
11
244.625
21
-31.1
0
LINE
8
0
10
231.625
20
-45.1
11
244.625
21
-45.1
0
LINE
8
0
10
231.125
20
-31.6
11
231.125
21
-44.6
0
LINE
8
0
10
245.125
20
-31.6
11
245.125
21
-44.6
0
ARC
8
0
10
231.625
20
-31.6
40
0.5
50
90
51
180
0
ARC
8
0
10
244.625
20
-31.6
40
0.5
50
0
51
90
0
ARC
8
0
10
231.625
20
-44.6
40
0.5
50
180
51
270
0
ARC
8
0
10
244.625
20
-44.6
40
0.5
50
270
51
0
0
LINE
8
0
10
260.2
20
-31.1
11
273.2
21
-31.1
0
LINE
8
0
10
260.2
20
-45.1
11
273.2
21
-45.1
0
LINE
8
0
10
259.7
20
-31.6
11
259.7
21
-44.6
0
LINE
8
0
10
273.7
20
-31.6
11
273.7
21
-44.6
0
ARC
8
0
10
260.2
20
-31.6
40
0.5
50
90
51
180
0
ARC
8
0
10
273.2
20
-31.6
40
0.5
50
0
51
90
0
ARC
8
0
10
260.2
20
-44.6
40
0.5
50
180
51
270
0
ARC
8
0
10
273.2
20
-44.6
40
0.5
50
270
51
0
0
LINE
8
0
10
251.9346
20
-32.4104
11
257.5894
21
-32.4104
0
LINE
8
0
10
258.0894
20
-32.9104
11
258.0894
21
-33.2232
0
LINE
8
0
10
258.0894
20
-33.2232
11
266.7
21
-33.2232
0
LINE
8
0
10
266.7
20
-43.9166
11
258.5894
21
-43.9166
0
LINE
8
0
10
258.0894
20
-44.4166
11
258.0894
21
-44.704
0
LINE
8
0
10
258.0894
20
-44.704
11
256.786
21
-44.704
0
LINE
8
0
10
256.286
20
-45.204
11
256.286
21
-45.3724
0
LINE
8
0
10
255.786
20
-45.8724
11
253.738
21
-45.8724
0
LINE
8
0
10
253.238
20
-45.3724
11
253.238
21
-45.204
0
LINE
8
0
10
252.738
20
-44.704
11
251.9346
21
-44.704
0
LINE
8
0
10
251.4346
20
-44.204
11
251.4346
21
-39.108
0
LINE
8
0
10
250.9346
20
-38.608
11
250.571
21
-38.608
0
LINE
8
0
10
250.571
20
-38.608
11
250.571
21
-36.314
0
LINE
8
0
10
251.071
20
-35.814
11
251.4346
21
-35.814
0
LINE
8
0
10
251.4346
20
-35.814
11
251.4346
21
-32.9104
0
ARC
8
0
10
257.5894
20
-32.9104
40
0.5
50
0
51
90
0
ARC
8
0
10
258.5894
20
-44.4166
40
0.5
50
90
51
180
0
ARC
8
0
10
256.786
20
-45.204
40
0.5
50
90
51
180
0
ARC
8
0
10
255.786
20
-45.3724
40
0.5
50
270
51
0
0
ARC
8
0
10
253.738
20
-45.3724
40
0.5
50
180
51
270
0
ARC
8
0
10
252.738
20
-45.204
40
0.5
50
0
51
90
0
ARC
8
0
10
251.9346
20
-44.204
40
0.5
50
180
51
270
0
ARC
8
0
10
250.9346
20
-39.108
40
0.5
50
0
51
90
0
ARC
8
0
10
251.071
20
-36.314
40
0.5
50
90
51
180
0
ARC
8
0
10
251.9346
20
-32.9104
40
0.5
50
90
51
180
0
LINE
8
0
10
281.4654
20
-32.4104
11
275.8106
21
-32.4104
0
LINE
8
0
10
275.3106
20
-32.9104
11
275.3106
21
-33.2232
0
LINE
8
0
10
275.3106
20
-33.2232
11
266.7
21
-33.2232
0
LINE
8
0
10
266.7
20
-43.9166
11
274.8106
21
-43.9166
0
LINE
8
0
10
275.3106
20
-44.4166
11
275.3106
21
-44.704
0
LINE
8
0
10
275.3106
20
-44.704
11
276.614
21
-44.704
0
LINE
8
0
10
277.114
20
-45.204
11
277.114
21
-45.3724
0
LINE
8
0
10
277.614
20
-45.8724
11
279.662
21
-45.8724
0
LINE
8
0
10
280.162
20
-45.3724
11
280.162
21
-45.204
0
LINE
8
0
10
280.662
20
-44.704
11
281.4654
21
-44.704
0
LINE
8
0
10
281.9654
20
-44.204
11
281.9654
21
-39.108
0
LINE
8
0
10
282.4654
20
-38.608
11
282.829
21
-38.608
0
LINE
8
0
10
282.829
20
-38.608
11
282.829
21
-36.314
0
LINE
8
0
10
282.329
20
-35.814
11
281.9654
21
-35.814
0
LINE
8
0
10
281.9654
20
-35.814
11
281.9654
21
-32.9104
0
ARC
8
0
10
275.8106
20
-32.9104
40
0.5
50
90
51
180
0
ARC
8
0
10
274.8106
20
-44.4166
40
0.5
50
0
51
90
0
ARC
8
0
10
276.614
20
-45.204
40
0.5
50
0
51
90
0
ARC
8
0
10
277.614
20
-45.3724
40
0.5
50
180
51
270
0
ARC
8
0
10
279.662
20
-45.3724
40
0.5
50
270
51
0
0
ARC
8
0
10
280.662
20
-45.204
40
0.5
50
90
51
180
0
ARC
8
0
10
281.4654
20
-44.204
40
0.5
50
270
51
0
0
ARC
8
0
10
282.4654
20
-39.108
40
0.5
50
90
51
180
0
ARC
8
0
10
282.329
20
-36.314
40
0.5
50
0
51
90
0
ARC
8
0
10
281.4654
20
-32.9104
40
0.5
50
0
51
90
0
LINE
8
0
10
298.3
20
-31.1
11
311.3
21
-31.1
0
LINE
8
0
10
298.3
20
-45.1
11
311.3
21
-45.1
0
LINE
8
0
10
297.8
20
-31.6
11
297.8
21
-44.6
0
LINE
8
0
10
311.8
20
-31.6
11
311.8
21
-44.6
0
ARC
8
0
10
298.3
20
-31.6
40
0.5
50
90
51
180
0
ARC
8
0
10
311.3
20
-31.6
40
0.5
50
0
51
90
0
ARC
8
0
10
298.3
20
-44.6
40
0.5
50
180
51
270
0
ARC
8
0
10
311.3
20
-44.6
40
0.5
50
270
51
0
0
LINE
8
0
10
7.7875
20
-50.15
11
20.7875
21
-50.15
0
LINE
8
0
10
7.7875
20
-64.15
11
20.7875
21
-64.15
0
LINE
8
0
10
7.2875
20
-50.65
11
7.2875
21
-63.65
0
LINE
8
0
10
21.2875
20
-50.65
11
21.2875
21
-63.65
0
ARC
8
0
10
7.7875
20
-50.65
40
0.5
50
90
51
180
0
ARC
8
0
10
20.7875
20
-50.65
40
0.5
50
0
51
90
0
ARC
8
0
10
7.7875
20
-63.65
40
0.5
50
180
51
270
0
ARC
8
0
10
20.7875
20
-63.65
40
0.5
50
270
51
0
0
LINE
8
0
10
31.6
20
-50.15
11
44.6
21
-50.15
0
LINE
8
0
10
31.6
20
-64.15
11
44.6
21
-64.15
0
LINE
8
0
10
31.1
20
-50.65
11
31.1
21
-63.65
0
LINE
8
0
10
45.1
20
-50.65
11
45.1
21
-63.65
0
ARC
8
0
10
31.6
20
-50.65
40
0.5
50
90
51
180
0
ARC
8
0
10
44.6
20
-50.65
40
0.5
50
0
51
90
0
ARC
8
0
10
31.6
20
-63.65
40
0.5
50
180
51
270
0
ARC
8
0
10
44.6
20
-63.65
40
0.5
50
270
51
0
0
LINE
8
0
10
50.65
20
-50.15
11
63.65
21
-50.15
0
LINE
8
0
10
50.65
20
-64.15
11
63.65
21
-64.15
0
LINE
8
0
10
50.15
20
-50.65
11
50.15
21
-63.65
0
LINE
8
0
10
64.15
20
-50.65
11
64.15
21
-63.65
0
ARC
8
0
10
50.65
20
-50.65
40
0.5
50
90
51
180
0
ARC
8
0
10
63.65
20
-50.65
40
0.5
50
0
51
90
0
ARC
8
0
10
50.65
20
-63.65
40
0.5
50
180
51
270
0
ARC
8
0
10
63.65
20
-63.65
40
0.5
50
270
51
0
0
LINE
8
0
10
69.7
20
-50.15
11
82.7
21
-50.15
0
LINE
8
0
10
69.7
20
-64.15
11
82.7
21
-64.15
0
LINE
8
0
10
69.2
20
-50.65
11
69.2
21
-63.65
0
LINE
8
0
10
83.2
20
-50.65
11
83.2
21
-63.65
0
ARC
8
0
10
69.7
20
-50.65
40
0.5
50
90
51
180
0
ARC
8
0
10
82.7
20
-50.65
40
0.5
50
0
51
90
0
ARC
8
0
10
69.7
20
-63.65
40
0.5
50
180
51
270
0
ARC
8
0
10
82.7
20
-63.65
40
0.5
50
270
51
0
0
LINE
8
0
10
88.75
20
-50.15
11
101.75
21
-50.15
0
LINE
8
0
10
88.75
20
-64.15
11
101.75
21
-64.15
0
LINE
8
0
10
88.25
20
-50.65
11
88.25
21
-63.65
0
LINE
8
0
10
102.25
20
-50.65
11
102.25
21
-63.65
0
ARC
8
0
10
88.75
20
-50.65
40
0.5
50
90
51
180
0
ARC
8
0
10
101.75
20
-50.65
40
0.5
50
0
51
90
0
ARC
8
0
10
88.75
20
-63.65
40
0.5
50
180
51
270
0
ARC
8
0
10
101.75
20
-63.65
40
0.5
50
270
51
0
0
LINE
8
0
10
107.8
20
-50.15
11
120.8
21
-50.15
0
LINE
8
0
10
107.8
20
-64.15
11
120.8
21
-64.15
0
LINE
8
0
10
107.3
20
-50.65
11
107.3
21
-63.65
0
LINE
8
0
10
121.3
20
-50.65
11
121.3
21
-63.65
0
ARC
8
0
10
107.8
20
-50.65
40
0.5
50
90
51
180
0
ARC
8
0
10
120.8
20
-50.65
40
0.5
50
0
51
90
0
ARC
8
0
10
107.8
20
-63.65
40
0.5
50
180
51
270
0
ARC
8
0
10
120.8
20
-63.65
40
0.5
50
270
51
0
0
LINE
8
0
10
126.85
20
-50.15
11
139.85
21
-50.15
0
LINE
8
0
10
126.85
20
-64.15
11
139.85
21
-64.15
0
LINE
8
0
10
126.35
20
-50.65
11
126.35
21
-63.65
0
LINE
8
0
10
140.35
20
-50.65
11
140.35
21
-63.65
0
ARC
8
0
10
126.85
20
-50.65
40
0.5
50
90
51
180
0
ARC
8
0
10
139.85
20
-50.65
40
0.5
50
0
51
90
0
ARC
8
0
10
126.85
20
-63.65
40
0.5
50
180
51
270
0
ARC
8
0
10
139.85
20
-63.65
40
0.5
50
270
51
0
0
LINE
8
0
10
145.9
20
-50.15
11
158.9
21
-50.15
0
LINE
8
0
10
145.9
20
-64.15
11
158.9
21
-64.15
0
LINE
8
0
10
145.4
20
-50.65
11
145.4
21
-63.65
0
LINE
8
0
10
159.4
20
-50.65
11
159.4
21
-63.65
0
ARC
8
0
10
145.9
20
-50.65
40
0.5
50
90
51
180
0
ARC
8
0
10
158.9
20
-50.65
40
0.5
50
0
51
90
0
ARC
8
0
10
145.9
20
-63.65
40
0.5
50
180
51
270
0
ARC
8
0
10
158.9
20
-63.65
40
0.5
50
270
51
0
0
LINE
8
0
10
164.95
20
-50.15
11
177.95
21
-50.15
0
LINE
8
0
10
164.95
20
-64.15
11
177.95
21
-64.15
0
LINE
8
0
10
164.45
20
-50.65
11
164.45
21
-63.65
0
LINE
8
0
10
178.45
20
-50.65
11
178.45
21
-63.65
0
ARC
8
0
10
164.95
20
-50.65
40
0.5
50
90
51
180
0
ARC
8
0
10
177.95
20
-50.65
40
0.5
50
0
51
90
0
ARC
8
0
10
164.95
20
-63.65
40
0.5
50
180
51
270
0
ARC
8
0
10
177.95
20
-63.65
40
0.5
50
270
51
0
0
LINE
8
0
10
184
20
-50.15
11
197
21
-50.15
0
LINE
8
0
10
184
20
-64.15
11
197
21
-64.15
0
LINE
8
0
10
183.5
20
-50.65
11
183.5
21
-63.65
0
LINE
8
0
10
197.5
20
-50.65
11
197.5
21
-63.65
0
ARC
8
0
10
184
20
-50.65
40
0.5
50
90
51
180
0
ARC
8
0
10
197
20
-50.65
40
0.5
50
0
51
90
0
ARC
8
0
10
184
20
-63.65
40
0.5
50
180
51
270
0
ARC
8
0
10
197
20
-63.65
40
0.5
50
270
51
0
0
LINE
8
0
10
203.05
20
-50.15
11
216.05
21
-50.15
0
LINE
8
0
10
203.05
20
-64.15
11
216.05
21
-64.15
0
LINE
8
0
10
202.55
20
-50.65
11
202.55
21
-63.65
0
LINE
8
0
10
216.55
20
-50.65
11
216.55
21
-63.65
0
ARC
8
0
10
203.05
20
-50.65
40
0.5
50
90
51
180
0
ARC
8
0
10
216.05
20
-50.65
40
0.5
50
0
51
90
0
ARC
8
0
10
203.05
20
-63.65
40
0.5
50
180
51
270
0
ARC
8
0
10
216.05
20
-63.65
40
0.5
50
270
51
0
0
LINE
8
0
10
222.1
20
-50.15
11
235.1
21
-50.15
0
LINE
8
0
10
222.1
20
-64.15
11
235.1
21
-64.15
0
LINE
8
0
10
221.6
20
-50.65
11
221.6
21
-63.65
0
LINE
8
0
10
235.6
20
-50.65
11
235.6
21
-63.65
0
ARC
8
0
10
222.1
20
-50.65
40
0.5
50
90
51
180
0
ARC
8
0
10
235.1
20
-50.65
40
0.5
50
0
51
90
0
ARC
8
0
10
222.1
20
-63.65
40
0.5
50
180
51
270
0
ARC
8
0
10
235.1
20
-63.65
40
0.5
50
270
51
0
0
LINE
8
0
10
241.15
20
-50.15
11
254.15
21
-50.15
0
LINE
8
0
10
241.15
20
-64.15
11
254.15
21
-64.15
0
LINE
8
0
10
240.65
20
-50.65
11
240.65
21
-63.65
0
LINE
8
0
10
254.65
20
-50.65
11
254.65
21
-63.65
0
ARC
8
0
10
241.15
20
-50.65
40
0.5
50
90
51
180
0
ARC
8
0
10
254.15
20
-50.65
40
0.5
50
0
51
90
0
ARC
8
0
10
241.15
20
-63.65
40
0.5
50
180
51
270
0
ARC
8
0
10
254.15
20
-63.65
40
0.5
50
270
51
0
0
LINE
8
0
10
280.84375
20
-60.175
11
280.84375
21
-73.175
0
LINE
8
0
10
266.84375
20
-60.175
11
266.84375
21
-73.175
0
LINE
8
0
10
280.34375
20
-59.675
11
267.34375
21
-59.675
0
LINE
8
0
10
280.34375
20
-73.675
11
267.34375
21
-73.675
0
ARC
8
0
10
280.34375
20
-60.175
40
0.5
50
0
51
90
0
ARC
8
0
10
280.34375
20
-73.175
40
0.5
50
270
51
0
0
ARC
8
0
10
267.34375
20
-60.175
40
0.5
50
90
51
180
0
ARC
8
0
10
267.34375
20
-73.175
40
0.5
50
180
51
270
0
LINE
8
0
10
279.53335
20
-51.9096
11
279.53335
21
-57.5644
0
LINE
8
0
10
279.03335
20
-58.0644
11
278.72055
21
-58.0644
0
LINE
8
0
10
278.72055
20
-58.0644
11
278.72055
21
-66.675
0
LINE
8
0
10
268.02715
20
-66.675
11
268.02715
21
-58.5644
0
LINE
8
0
10
267.52715
20
-58.0644
11
267.23975
21
-58.0644
0
LINE
8
0
10
267.23975
20
-58.0644
11
267.23975
21
-56.761
0
LINE
8
0
10
266.73975
20
-56.261
11
266.57135
21
-56.261
0
LINE
8
0
10
266.07135
20
-55.761
11
266.07135
21
-53.713
0
LINE
8
0
10
266.57135
20
-53.213
11
266.73975
21
-53.213
0
LINE
8
0
10
267.23975
20
-52.713
11
267.23975
21
-51.9096
0
LINE
8
0
10
267.73975
20
-51.4096
11
272.83575
21
-51.4096
0
LINE
8
0
10
273.33575
20
-50.9096
11
273.33575
21
-50.546
0
LINE
8
0
10
273.33575
20
-50.546
11
275.62975
21
-50.546
0
LINE
8
0
10
276.12975
20
-51.046
11
276.12975
21
-51.4096
0
LINE
8
0
10
276.12975
20
-51.4096
11
279.03335
21
-51.4096
0
ARC
8
0
10
279.03335
20
-57.5644
40
0.5
50
270
51
0
0
ARC
8
0
10
267.52715
20
-58.5644
40
0.5
50
0
51
90
0
ARC
8
0
10
266.73975
20
-56.761
40
0.5
50
0
51
90
0
ARC
8
0
10
266.57135
20
-55.761
40
0.5
50
180
51
270
0
ARC
8
0
10
266.57135
20
-53.713
40
0.5
50
90
51
180
0
ARC
8
0
10
266.73975
20
-52.713
40
0.5
50
270
51
0
0
ARC
8
0
10
267.73975
20
-51.9096
40
0.5
50
90
51
180
0
ARC
8
0
10
272.83575
20
-50.9096
40
0.5
50
270
51
0
0
ARC
8
0
10
275.62975
20
-51.046
40
0.5
50
0
51
90
0
ARC
8
0
10
279.03335
20
-51.9096
40
0.5
50
0
51
90
0
LINE
8
0
10
279.53335
20
-81.4404
11
279.53335
21
-75.7856
0
LINE
8
0
10
279.03335
20
-75.2856
11
278.72055
21
-75.2856
0
LINE
8
0
10
278.72055
20
-75.2856
11
278.72055
21
-66.675
0
LINE
8
0
10
268.02715
20
-66.675
11
268.02715
21
-74.7856
0
LINE
8
0
10
267.52715
20
-75.2856
11
267.23975
21
-75.2856
0
LINE
8
0
10
267.23975
20
-75.2856
11
267.23975
21
-76.589
0
LINE
8
0
10
266.73975
20
-77.089
11
266.57135
21
-77.089
0
LINE
8
0
10
266.07135
20
-77.589
11
266.07135
21
-79.637
0
LINE
8
0
10
266.57135
20
-80.137
11
266.73975
21
-80.137
0
LINE
8
0
10
267.23975
20
-80.637
11
267.23975
21
-81.4404
0
LINE
8
0
10
267.73975
20
-81.9404
11
272.83575
21
-81.9404
0
LINE
8
0
10
273.33575
20
-82.4404
11
273.33575
21
-82.804
0
LINE
8
0
10
273.33575
20
-82.804
11
275.62975
21
-82.804
0
LINE
8
0
10
276.12975
20
-82.304
11
276.12975
21
-81.9404
0
LINE
8
0
10
276.12975
20
-81.9404
11
279.03335
21
-81.9404
0
ARC
8
0
10
279.03335
20
-75.7856
40
0.5
50
0
51
90
0
ARC
8
0
10
267.52715
20
-74.7856
40
0.5
50
270
51
0
0
ARC
8
0
10
266.73975
20
-76.589
40
0.5
50
270
51
0
0
ARC
8
0
10
266.57135
20
-77.589
40
0.5
50
90
51
180
0
ARC
8
0
10
266.57135
20
-79.637
40
0.5
50
180
51
270
0
ARC
8
0
10
266.73975
20
-80.637
40
0.5
50
0
51
90
0
ARC
8
0
10
267.73975
20
-81.4404
40
0.5
50
180
51
270
0
ARC
8
0
10
272.83575
20
-82.4404
40
0.5
50
0
51
90
0
ARC
8
0
10
275.62975
20
-82.304
40
0.5
50
270
51
0
0
ARC
8
0
10
279.03335
20
-81.4404
40
0.5
50
270
51
0
0
LINE
8
0
10
298.3
20
-50.15
11
311.3
21
-50.15
0
LINE
8
0
10
298.3
20
-64.15
11
311.3
21
-64.15
0
LINE
8
0
10
297.8
20
-50.65
11
297.8
21
-63.65
0
LINE
8
0
10
311.8
20
-50.65
11
311.8
21
-63.65
0
ARC
8
0
10
298.3
20
-50.65
40
0.5
50
90
51
180
0
ARC
8
0
10
311.3
20
-50.65
40
0.5
50
0
51
90
0
ARC
8
0
10
298.3
20
-63.65
40
0.5
50
180
51
270
0
ARC
8
0
10
311.3
20
-63.65
40
0.5
50
270
51
0
0
LINE
8
0
10
10.16875
20
-69.2
11
23.16875
21
-69.2
0
LINE
8
0
10
10.16875
20
-83.2
11
23.16875
21
-83.2
0
LINE
8
0
10
9.66875
20
-69.7
11
9.66875
21
-82.7
0
LINE
8
0
10
23.66875
20
-69.7
11
23.66875
21
-82.7
0
ARC
8
0
10
10.16875
20
-69.7
40
0.5
50
90
51
180
0
ARC
8
0
10
23.16875
20
-69.7
40
0.5
50
0
51
90
0
ARC
8
0
10
10.16875
20
-82.7
40
0.5
50
180
51
270
0
ARC
8
0
10
23.16875
20
-82.7
40
0.5
50
270
51
0
0
LINE
8
0
10
36.3625
20
-69.2
11
49.3625
21
-69.2
0
LINE
8
0
10
36.3625
20
-83.2
11
49.3625
21
-83.2
0
LINE
8
0
10
35.8625
20
-69.7
11
35.8625
21
-82.7
0
LINE
8
0
10
49.8625
20
-69.7
11
49.8625
21
-82.7
0
ARC
8
0
10
36.3625
20
-69.7
40
0.5
50
90
51
180
0
ARC
8
0
10
49.3625
20
-69.7
40
0.5
50
0
51
90
0
ARC
8
0
10
36.3625
20
-82.7
40
0.5
50
180
51
270
0
ARC
8
0
10
49.3625
20
-82.7
40
0.5
50
270
51
0
0
LINE
8
0
10
55.4125
20
-69.2
11
68.4125
21
-69.2
0
LINE
8
0
10
55.4125
20
-83.2
11
68.4125
21
-83.2
0
LINE
8
0
10
54.9125
20
-69.7
11
54.9125
21
-82.7
0
LINE
8
0
10
68.9125
20
-69.7
11
68.9125
21
-82.7
0
ARC
8
0
10
55.4125
20
-69.7
40
0.5
50
90
51
180
0
ARC
8
0
10
68.4125
20
-69.7
40
0.5
50
0
51
90
0
ARC
8
0
10
55.4125
20
-82.7
40
0.5
50
180
51
270
0
ARC
8
0
10
68.4125
20
-82.7
40
0.5
50
270
51
0
0
LINE
8
0
10
74.4625
20
-69.2
11
87.4625
21
-69.2
0
LINE
8
0
10
74.4625
20
-83.2
11
87.4625
21
-83.2
0
LINE
8
0
10
73.9625
20
-69.7
11
73.9625
21
-82.7
0
LINE
8
0
10
87.9625
20
-69.7
11
87.9625
21
-82.7
0
ARC
8
0
10
74.4625
20
-69.7
40
0.5
50
90
51
180
0
ARC
8
0
10
87.4625
20
-69.7
40
0.5
50
0
51
90
0
ARC
8
0
10
74.4625
20
-82.7
40
0.5
50
180
51
270
0
ARC
8
0
10
87.4625
20
-82.7
40
0.5
50
270
51
0
0
LINE
8
0
10
93.5125
20
-69.2
11
106.5125
21
-69.2
0
LINE
8
0
10
93.5125
20
-83.2
11
106.5125
21
-83.2
0
LINE
8
0
10
93.0125
20
-69.7
11
93.0125
21
-82.7
0
LINE
8
0
10
107.0125
20
-69.7
11
107.0125
21
-82.7
0
ARC
8
0
10
93.5125
20
-69.7
40
0.5
50
90
51
180
0
ARC
8
0
10
106.5125
20
-69.7
40
0.5
50
0
51
90
0
ARC
8
0
10
93.5125
20
-82.7
40
0.5
50
180
51
270
0
ARC
8
0
10
106.5125
20
-82.7
40
0.5
50
270
51
0
0
LINE
8
0
10
112.5625
20
-69.2
11
125.5625
21
-69.2
0
LINE
8
0
10
112.5625
20
-83.2
11
125.5625
21
-83.2
0
LINE
8
0
10
112.0625
20
-69.7
11
112.0625
21
-82.7
0
LINE
8
0
10
126.0625
20
-69.7
11
126.0625
21
-82.7
0
ARC
8
0
10
112.5625
20
-69.7
40
0.5
50
90
51
180
0
ARC
8
0
10
125.5625
20
-69.7
40
0.5
50
0
51
90
0
ARC
8
0
10
112.5625
20
-82.7
40
0.5
50
180
51
270
0
ARC
8
0
10
125.5625
20
-82.7
40
0.5
50
270
51
0
0
LINE
8
0
10
131.6125
20
-69.2
11
144.6125
21
-69.2
0
LINE
8
0
10
131.6125
20
-83.2
11
144.6125
21
-83.2
0
LINE
8
0
10
131.1125
20
-69.7
11
131.1125
21
-82.7
0
LINE
8
0
10
145.1125
20
-69.7
11
145.1125
21
-82.7
0
ARC
8
0
10
131.6125
20
-69.7
40
0.5
50
90
51
180
0
ARC
8
0
10
144.6125
20
-69.7
40
0.5
50
0
51
90
0
ARC
8
0
10
131.6125
20
-82.7
40
0.5
50
180
51
270
0
ARC
8
0
10
144.6125
20
-82.7
40
0.5
50
270
51
0
0
LINE
8
0
10
150.6625
20
-69.2
11
163.6625
21
-69.2
0
LINE
8
0
10
150.6625
20
-83.2
11
163.6625
21
-83.2
0
LINE
8
0
10
150.1625
20
-69.7
11
150.1625
21
-82.7
0
LINE
8
0
10
164.1625
20
-69.7
11
164.1625
21
-82.7
0
ARC
8
0
10
150.6625
20
-69.7
40
0.5
50
90
51
180
0
ARC
8
0
10
163.6625
20
-69.7
40
0.5
50
0
51
90
0
ARC
8
0
10
150.6625
20
-82.7
40
0.5
50
180
51
270
0
ARC
8
0
10
163.6625
20
-82.7
40
0.5
50
270
51
0
0
LINE
8
0
10
169.7125
20
-69.2
11
182.7125
21
-69.2
0
LINE
8
0
10
169.7125
20
-83.2
11
182.7125
21
-83.2
0
LINE
8
0
10
169.2125
20
-69.7
11
169.2125
21
-82.7
0
LINE
8
0
10
183.2125
20
-69.7
11
183.2125
21
-82.7
0
ARC
8
0
10
169.7125
20
-69.7
40
0.5
50
90
51
180
0
ARC
8
0
10
182.7125
20
-69.7
40
0.5
50
0
51
90
0
ARC
8
0
10
169.7125
20
-82.7
40
0.5
50
180
51
270
0
ARC
8
0
10
182.7125
20
-82.7
40
0.5
50
270
51
0
0
LINE
8
0
10
188.7625
20
-69.2
11
201.7625
21
-69.2
0
LINE
8
0
10
188.7625
20
-83.2
11
201.7625
21
-83.2
0
LINE
8
0
10
188.2625
20
-69.7
11
188.2625
21
-82.7
0
LINE
8
0
10
202.2625
20
-69.7
11
202.2625
21
-82.7
0
ARC
8
0
10
188.7625
20
-69.7
40
0.5
50
90
51
180
0
ARC
8
0
10
201.7625
20
-69.7
40
0.5
50
0
51
90
0
ARC
8
0
10
188.7625
20
-82.7
40
0.5
50
180
51
270
0
ARC
8
0
10
201.7625
20
-82.7
40
0.5
50
270
51
0
0
LINE
8
0
10
207.8125
20
-69.2
11
220.8125
21
-69.2
0
LINE
8
0
10
207.8125
20
-83.2
11
220.8125
21
-83.2
0
LINE
8
0
10
207.3125
20
-69.7
11
207.3125
21
-82.7
0
LINE
8
0
10
221.3125
20
-69.7
11
221.3125
21
-82.7
0
ARC
8
0
10
207.8125
20
-69.7
40
0.5
50
90
51
180
0
ARC
8
0
10
220.8125
20
-69.7
40
0.5
50
0
51
90
0
ARC
8
0
10
207.8125
20
-82.7
40
0.5
50
180
51
270
0
ARC
8
0
10
220.8125
20
-82.7
40
0.5
50
270
51
0
0
LINE
8
0
10
226.8625
20
-69.2
11
239.8625
21
-69.2
0
LINE
8
0
10
226.8625
20
-83.2
11
239.8625
21
-83.2
0
LINE
8
0
10
226.3625
20
-69.7
11
226.3625
21
-82.7
0
LINE
8
0
10
240.3625
20
-69.7
11
240.3625
21
-82.7
0
ARC
8
0
10
226.8625
20
-69.7
40
0.5
50
90
51
180
0
ARC
8
0
10
239.8625
20
-69.7
40
0.5
50
0
51
90
0
ARC
8
0
10
226.8625
20
-82.7
40
0.5
50
180
51
270
0
ARC
8
0
10
239.8625
20
-82.7
40
0.5
50
270
51
0
0
LINE
8
0
10
245.9125
20
-69.2
11
258.9125
21
-69.2
0
LINE
8
0
10
245.9125
20
-83.2
11
258.9125
21
-83.2
0
LINE
8
0
10
245.4125
20
-69.7
11
245.4125
21
-82.7
0
LINE
8
0
10
259.4125
20
-69.7
11
259.4125
21
-82.7
0
ARC
8
0
10
245.9125
20
-69.7
40
0.5
50
90
51
180
0
ARC
8
0
10
258.9125
20
-69.7
40
0.5
50
0
51
90
0
ARC
8
0
10
245.9125
20
-82.7
40
0.5
50
180
51
270
0
ARC
8
0
10
258.9125
20
-82.7
40
0.5
50
270
51
0
0
LINE
8
0
10
298.3
20
-69.2
11
311.3
21
-69.2
0
LINE
8
0
10
298.3
20
-83.2
11
311.3
21
-83.2
0
LINE
8
0
10
297.8
20
-69.7
11
297.8
21
-82.7
0
LINE
8
0
10
311.8
20
-69.7
11
311.8
21
-82.7
0
ARC
8
0
10
298.3
20
-69.7
40
0.5
50
90
51
180
0
ARC
8
0
10
311.3
20
-69.7
40
0.5
50
0
51
90
0
ARC
8
0
10
298.3
20
-82.7
40
0.5
50
180
51
270
0
ARC
8
0
10
311.3
20
-82.7
40
0.5
50
270
51
0
0
LINE
8
0
10
5.40625
20
-88.25
11
18.40625
21
-88.25
0
LINE
8
0
10
5.40625
20
-102.25
11
18.40625
21
-102.25
0
LINE
8
0
10
4.90625
20
-88.75
11
4.90625
21
-101.75
0
LINE
8
0
10
18.90625
20
-88.75
11
18.90625
21
-101.75
0
ARC
8
0
10
5.40625
20
-88.75
40
0.5
50
90
51
180
0
ARC
8
0
10
18.40625
20
-88.75
40
0.5
50
0
51
90
0
ARC
8
0
10
5.40625
20
-101.75
40
0.5
50
180
51
270
0
ARC
8
0
10
18.40625
20
-101.75
40
0.5
50
270
51
0
0
LINE
8
0
10
26.8375
20
-88.25
11
39.8375
21
-88.25
0
LINE
8
0
10
26.8375
20
-102.25
11
39.8375
21
-102.25
0
LINE
8
0
10
26.3375
20
-88.75
11
26.3375
21
-101.75
0
LINE
8
0
10
40.3375
20
-88.75
11
40.3375
21
-101.75
0
ARC
8
0
10
26.8375
20
-88.75
40
0.5
50
90
51
180
0
ARC
8
0
10
39.8375
20
-88.75
40
0.5
50
0
51
90
0
ARC
8
0
10
26.8375
20
-101.75
40
0.5
50
180
51
270
0
ARC
8
0
10
39.8375
20
-101.75
40
0.5
50
270
51
0
0
LINE
8
0
10
45.8875
20
-88.25
11
58.8875
21
-88.25
0
LINE
8
0
10
45.8875
20
-102.25
11
58.8875
21
-102.25
0
LINE
8
0
10
45.3875
20
-88.75
11
45.3875
21
-101.75
0
LINE
8
0
10
59.3875
20
-88.75
11
59.3875
21
-101.75
0
ARC
8
0
10
45.8875
20
-88.75
40
0.5
50
90
51
180
0
ARC
8
0
10
58.8875
20
-88.75
40
0.5
50
0
51
90
0
ARC
8
0
10
45.8875
20
-101.75
40
0.5
50
180
51
270
0
ARC
8
0
10
58.8875
20
-101.75
40
0.5
50
270
51
0
0
LINE
8
0
10
64.9375
20
-88.25
11
77.9375
21
-88.25
0
LINE
8
0
10
64.9375
20
-102.25
11
77.9375
21
-102.25
0
LINE
8
0
10
64.4375
20
-88.75
11
64.4375
21
-101.75
0
LINE
8
0
10
78.4375
20
-88.75
11
78.4375
21
-101.75
0
ARC
8
0
10
64.9375
20
-88.75
40
0.5
50
90
51
180
0
ARC
8
0
10
77.9375
20
-88.75
40
0.5
50
0
51
90
0
ARC
8
0
10
64.9375
20
-101.75
40
0.5
50
180
51
270
0
ARC
8
0
10
77.9375
20
-101.75
40
0.5
50
270
51
0
0
LINE
8
0
10
83.9875
20
-88.25
11
96.9875
21
-88.25
0
LINE
8
0
10
83.9875
20
-102.25
11
96.9875
21
-102.25
0
LINE
8
0
10
83.4875
20
-88.75
11
83.4875
21
-101.75
0
LINE
8
0
10
97.4875
20
-88.75
11
97.4875
21
-101.75
0
ARC
8
0
10
83.9875
20
-88.75
40
0.5
50
90
51
180
0
ARC
8
0
10
96.9875
20
-88.75
40
0.5
50
0
51
90
0
ARC
8
0
10
83.9875
20
-101.75
40
0.5
50
180
51
270
0
ARC
8
0
10
96.9875
20
-101.75
40
0.5
50
270
51
0
0
LINE
8
0
10
103.0375
20
-88.25
11
116.0375
21
-88.25
0
LINE
8
0
10
103.0375
20
-102.25
11
116.0375
21
-102.25
0
LINE
8
0
10
102.5375
20
-88.75
11
102.5375
21
-101.75
0
LINE
8
0
10
116.5375
20
-88.75
11
116.5375
21
-101.75
0
ARC
8
0
10
103.0375
20
-88.75
40
0.5
50
90
51
180
0
ARC
8
0
10
116.0375
20
-88.75
40
0.5
50
0
51
90
0
ARC
8
0
10
103.0375
20
-101.75
40
0.5
50
180
51
270
0
ARC
8
0
10
116.0375
20
-101.75
40
0.5
50
270
51
0
0
LINE
8
0
10
122.0875
20
-88.25
11
135.0875
21
-88.25
0
LINE
8
0
10
122.0875
20
-102.25
11
135.0875
21
-102.25
0
LINE
8
0
10
121.5875
20
-88.75
11
121.5875
21
-101.75
0
LINE
8
0
10
135.5875
20
-88.75
11
135.5875
21
-101.75
0
ARC
8
0
10
122.0875
20
-88.75
40
0.5
50
90
51
180
0
ARC
8
0
10
135.0875
20
-88.75
40
0.5
50
0
51
90
0
ARC
8
0
10
122.0875
20
-101.75
40
0.5
50
180
51
270
0
ARC
8
0
10
135.0875
20
-101.75
40
0.5
50
270
51
0
0
LINE
8
0
10
141.1375
20
-88.25
11
154.1375
21
-88.25
0
LINE
8
0
10
141.1375
20
-102.25
11
154.1375
21
-102.25
0
LINE
8
0
10
140.6375
20
-88.75
11
140.6375
21
-101.75
0
LINE
8
0
10
154.6375
20
-88.75
11
154.6375
21
-101.75
0
ARC
8
0
10
141.1375
20
-88.75
40
0.5
50
90
51
180
0
ARC
8
0
10
154.1375
20
-88.75
40
0.5
50
0
51
90
0
ARC
8
0
10
141.1375
20
-101.75
40
0.5
50
180
51
270
0
ARC
8
0
10
154.1375
20
-101.75
40
0.5
50
270
51
0
0
LINE
8
0
10
160.1875
20
-88.25
11
173.1875
21
-88.25
0
LINE
8
0
10
160.1875
20
-102.25
11
173.1875
21
-102.25
0
LINE
8
0
10
159.6875
20
-88.75
11
159.6875
21
-101.75
0
LINE
8
0
10
173.6875
20
-88.75
11
173.6875
21
-101.75
0
ARC
8
0
10
160.1875
20
-88.75
40
0.5
50
90
51
180
0
ARC
8
0
10
173.1875
20
-88.75
40
0.5
50
0
51
90
0
ARC
8
0
10
160.1875
20
-101.75
40
0.5
50
180
51
270
0
ARC
8
0
10
173.1875
20
-101.75
40
0.5
50
270
51
0
0
LINE
8
0
10
179.2375
20
-88.25
11
192.2375
21
-88.25
0
LINE
8
0
10
179.2375
20
-102.25
11
192.2375
21
-102.25
0
LINE
8
0
10
178.7375
20
-88.75
11
178.7375
21
-101.75
0
LINE
8
0
10
192.7375
20
-88.75
11
192.7375
21
-101.75
0
ARC
8
0
10
179.2375
20
-88.75
40
0.5
50
90
51
180
0
ARC
8
0
10
192.2375
20
-88.75
40
0.5
50
0
51
90
0
ARC
8
0
10
179.2375
20
-101.75
40
0.5
50
180
51
270
0
ARC
8
0
10
192.2375
20
-101.75
40
0.5
50
270
51
0
0
LINE
8
0
10
198.2875
20
-88.25
11
211.2875
21
-88.25
0
LINE
8
0
10
198.2875
20
-102.25
11
211.2875
21
-102.25
0
LINE
8
0
10
197.7875
20
-88.75
11
197.7875
21
-101.75
0
LINE
8
0
10
211.7875
20
-88.75
11
211.7875
21
-101.75
0
ARC
8
0
10
198.2875
20
-88.75
40
0.5
50
90
51
180
0
ARC
8
0
10
211.2875
20
-88.75
40
0.5
50
0
51
90
0
ARC
8
0
10
198.2875
20
-101.75
40
0.5
50
180
51
270
0
ARC
8
0
10
211.2875
20
-101.75
40
0.5
50
270
51
0
0
LINE
8
0
10
217.3375
20
-88.25
11
230.3375
21
-88.25
0
LINE
8
0
10
217.3375
20
-102.25
11
230.3375
21
-102.25
0
LINE
8
0
10
216.8375
20
-88.75
11
216.8375
21
-101.75
0
LINE
8
0
10
230.8375
20
-88.75
11
230.8375
21
-101.75
0
ARC
8
0
10
217.3375
20
-88.75
40
0.5
50
90
51
180
0
ARC
8
0
10
230.3375
20
-88.75
40
0.5
50
0
51
90
0
ARC
8
0
10
217.3375
20
-101.75
40
0.5
50
180
51
270
0
ARC
8
0
10
230.3375
20
-101.75
40
0.5
50
270
51
0
0
LINE
8
0
10
243.53125
20
-88.25
11
256.53125
21
-88.25
0
LINE
8
0
10
243.53125
20
-102.25
11
256.53125
21
-102.25
0
LINE
8
0
10
243.03125
20
-88.75
11
243.03125
21
-101.75
0
LINE
8
0
10
257.03125
20
-88.75
11
257.03125
21
-101.75
0
ARC
8
0
10
243.53125
20
-88.75
40
0.5
50
90
51
180
0
ARC
8
0
10
256.53125
20
-88.75
40
0.5
50
0
51
90
0
ARC
8
0
10
243.53125
20
-101.75
40
0.5
50
180
51
270
0
ARC
8
0
10
256.53125
20
-101.75
40
0.5
50
270
51
0
0
LINE
8
0
10
298.3
20
-88.25
11
311.3
21
-88.25
0
LINE
8
0
10
298.3
20
-102.25
11
311.3
21
-102.25
0
LINE
8
0
10
297.8
20
-88.75
11
297.8
21
-101.75
0
LINE
8
0
10
311.8
20
-88.75
11
311.8
21
-101.75
0
ARC
8
0
10
298.3
20
-88.75
40
0.5
50
90
51
180
0
ARC
8
0
10
311.3
20
-88.75
40
0.5
50
0
51
90
0
ARC
8
0
10
298.3
20
-101.75
40
0.5
50
180
51
270
0
ARC
8
0
10
311.3
20
-101.75
40
0.5
50
270
51
0
0
LINE
8
0
10
274.4875
20
-93.0125
11
287.4875
21
-93.0125
0
LINE
8
0
10
274.4875
20
-107.0125
11
287.4875
21
-107.0125
0
LINE
8
0
10
273.9875
20
-93.5125
11
273.9875
21
-106.5125
0
LINE
8
0
10
287.9875
20
-93.5125
11
287.9875
21
-106.5125
0
ARC
8
0
10
274.4875
20
-93.5125
40
0.5
50
90
51
180
0
ARC
8
0
10
287.4875
20
-93.5125
40
0.5
50
0
51
90
0
ARC
8
0
10
274.4875
20
-106.5125
40
0.5
50
180
51
270
0
ARC
8
0
10
287.4875
20
-106.5125
40
0.5
50
270
51
0
0
LINE
8
0
10
5.40625
20
-107.3
11
18.40625
21
-107.3
0
LINE
8
0
10
5.40625
20
-121.3
11
18.40625
21
-121.3
0
LINE
8
0
10
4.90625
20
-107.8
11
4.90625
21
-120.8
0
LINE
8
0
10
18.90625
20
-107.8
11
18.90625
21
-120.8
0
ARC
8
0
10
5.40625
20
-107.8
40
0.5
50
90
51
180
0
ARC
8
0
10
18.40625
20
-107.8
40
0.5
50
0
51
90
0
ARC
8
0
10
5.40625
20
-120.8
40
0.5
50
180
51
270
0
ARC
8
0
10
18.40625
20
-120.8
40
0.5
50
270
51
0
0
LINE
8
0
10
29.21875
20
-107.3
11
42.21875
21
-107.3
0
LINE
8
0
10
29.21875
20
-121.3
11
42.21875
21
-121.3
0
LINE
8
0
10
28.71875
20
-107.8
11
28.71875
21
-120.8
0
LINE
8
0
10
42.71875
20
-107.8
11
42.71875
21
-120.8
0
ARC
8
0
10
29.21875
20
-107.8
40
0.5
50
90
51
180
0
ARC
8
0
10
42.21875
20
-107.8
40
0.5
50
0
51
90
0
ARC
8
0
10
29.21875
20
-120.8
40
0.5
50
180
51
270
0
ARC
8
0
10
42.21875
20
-120.8
40
0.5
50
270
51
0
0
LINE
8
0
10
53.03125
20
-107.3
11
66.03125
21
-107.3
0
LINE
8
0
10
53.03125
20
-121.3
11
66.03125
21
-121.3
0
LINE
8
0
10
52.53125
20
-107.8
11
52.53125
21
-120.8
0
LINE
8
0
10
66.53125
20
-107.8
11
66.53125
21
-120.8
0
ARC
8
0
10
53.03125
20
-107.8
40
0.5
50
90
51
180
0
ARC
8
0
10
66.03125
20
-107.8
40
0.5
50
0
51
90
0
ARC
8
0
10
53.03125
20
-120.8
40
0.5
50
180
51
270
0
ARC
8
0
10
66.03125
20
-120.8
40
0.5
50
270
51
0
0
LINE
8
0
10
124.46875
20
-107.3
11
137.46875
21
-107.3
0
LINE
8
0
10
124.46875
20
-121.3
11
137.46875
21
-121.3
0
LINE
8
0
10
123.96875
20
-107.8
11
123.96875
21
-120.8
0
LINE
8
0
10
137.96875
20
-107.8
11
137.96875
21
-120.8
0
ARC
8
0
10
124.46875
20
-107.8
40
0.5
50
90
51
180
0
ARC
8
0
10
137.46875
20
-107.8
40
0.5
50
0
51
90
0
ARC
8
0
10
124.46875
20
-120.8
40
0.5
50
180
51
270
0
ARC
8
0
10
137.46875
20
-120.8
40
0.5
50
270
51
0
0
LINE
8
0
10
78.14135
20
-108.6104
11
83.79615
21
-108.6104
0
LINE
8
0
10
84.29615
20
-109.1104
11
84.29615
21
-111.5
0
LINE
8
0
10
84.79615
20
-112
11
130.96875
21
-112
0
LINE
8
0
10
130.96875
20
-116.6
11
84.79615
21
-116.6
0
LINE
8
0
10
84.29615
20
-117.1
11
84.29615
21
-120.404
0
LINE
8
0
10
83.79615
20
-120.904
11
82.99275
21
-120.904
0
LINE
8
0
10
82.49275
20
-121.404
11
82.49275
21
-121.5724
0
LINE
8
0
10
81.99275
20
-122.0724
11
79.94475
21
-122.0724
0
LINE
8
0
10
79.44475
20
-121.5724
11
79.44475
21
-121.404
0
LINE
8
0
10
78.94475
20
-120.904
11
78.14135
21
-120.904
0
LINE
8
0
10
77.64135
20
-120.404
11
77.64135
21
-115.308
0
LINE
8
0
10
77.14135
20
-114.808
11
76.77775
21
-114.808
0
LINE
8
0
10
76.77775
20
-114.808
11
76.77775
21
-112.514
0
LINE
8
0
10
77.27775
20
-112.014
11
77.64135
21
-112.014
0
LINE
8
0
10
77.64135
20
-112.014
11
77.64135
21
-109.1104
0
ARC
8
0
10
83.79615
20
-109.1104
40
0.5
50
0
51
90
0
ARC
8
0
10
84.79615
20
-111.5
40
0.5
50
180
51
270
0
ARC
8
0
10
84.79615
20
-117.1
40
0.5
50
90
51
180
0
ARC
8
0
10
83.79615
20
-120.404
40
0.5
50
270
51
0
0
ARC
8
0
10
82.99275
20
-121.404
40
0.5
50
90
51
180
0
ARC
8
0
10
81.99275
20
-121.5724
40
0.5
50
270
51
0
0
ARC
8
0
10
79.94475
20
-121.5724
40
0.5
50
180
51
270
0
ARC
8
0
10
78.94475
20
-121.404
40
0.5
50
0
51
90
0
ARC
8
0
10
78.14135
20
-120.404
40
0.5
50
180
51
270
0
ARC
8
0
10
77.14135
20
-115.308
40
0.5
50
0
51
90
0
ARC
8
0
10
77.27775
20
-112.514
40
0.5
50
90
51
180
0
ARC
8
0
10
78.14135
20
-109.1104
40
0.5
50
90
51
180
0
LINE
8
0
10
183.79615
20
-108.6104
11
178.14135
21
-108.6104
0
LINE
8
0
10
177.64135
20
-109.1104
11
177.64135
21
-111.5
0
LINE
8
0
10
177.14135
20
-112
11
130.96875
21
-112
0
LINE
8
0
10
130.96875
20
-116.6
11
177.14135
21
-116.6
0
LINE
8
0
10
177.64135
20
-117.1
11
177.64135
21
-120.404
0
LINE
8
0
10
178.14135
20
-120.904
11
178.94475
21
-120.904
0
LINE
8
0
10
179.44475
20
-121.404
11
179.44475
21
-121.5724
0
LINE
8
0
10
179.94475
20
-122.0724
11
181.99275
21
-122.0724
0
LINE
8
0
10
182.49275
20
-121.5724
11
182.49275
21
-121.404
0
LINE
8
0
10
182.99275
20
-120.904
11
183.79615
21
-120.904
0
LINE
8
0
10
184.29615
20
-120.404
11
184.29615
21
-115.308
0
LINE
8
0
10
184.79615
20
-114.808
11
185.15975
21
-114.808
0
LINE
8
0
10
185.15975
20
-114.808
11
185.15975
21
-112.514
0
LINE
8
0
10
184.65975
20
-112.014
11
184.29615
21
-112.014
0
LINE
8
0
10
184.29615
20
-112.014
11
184.29615
21
-109.1104
0
ARC
8
0
10
178.14135
20
-109.1104
40
0.5
50
90
51
180
0
ARC
8
0
10
177.14135
20
-111.5
40
0.5
50
270
51
0
0
ARC
8
0
10
177.14135
20
-117.1
40
0.5
50
0
51
90
0
ARC
8
0
10
178.14135
20
-120.404
40
0.5
50
180
51
270
0
ARC
8
0
10
178.94475
20
-121.404
40
0.5
50
0
51
90
0
ARC
8
0
10
179.94475
20
-121.5724
40
0.5
50
180
51
270
0
ARC
8
0
10
181.99275
20
-121.5724
40
0.5
50
270
51
0
0
ARC
8
0
10
182.99275
20
-121.404
40
0.5
50
90
51
180
0
ARC
8
0
10
183.79615
20
-120.404
40
0.5
50
270
51
0
0
ARC
8
0
10
184.79615
20
-115.308
40
0.5
50
90
51
180
0
ARC
8
0
10
184.65975
20
-112.514
40
0.5
50
0
51
90
0
ARC
8
0
10
183.79615
20
-109.1104
40
0.5
50
0
51
90
0
LINE
8
0
10
193.525
20
-107.3
11
206.525
21
-107.3
0
LINE
8
0
10
193.525
20
-121.3
11
206.525
21
-121.3
0
LINE
8
0
10
193.025
20
-107.8
11
193.025
21
-120.8
0
LINE
8
0
10
207.025
20
-107.8
11
207.025
21
-120.8
0
ARC
8
0
10
193.525
20
-107.8
40
0.5
50
90
51
180
0
ARC
8
0
10
206.525
20
-107.8
40
0.5
50
0
51
90
0
ARC
8
0
10
193.525
20
-120.8
40
0.5
50
180
51
270
0
ARC
8
0
10
206.525
20
-120.8
40
0.5
50
270
51
0
0
LINE
8
0
10
212.575
20
-107.3
11
225.575
21
-107.3
0
LINE
8
0
10
212.575
20
-121.3
11
225.575
21
-121.3
0
LINE
8
0
10
212.075
20
-107.8
11
212.075
21
-120.8
0
LINE
8
0
10
226.075
20
-107.8
11
226.075
21
-120.8
0
ARC
8
0
10
212.575
20
-107.8
40
0.5
50
90
51
180
0
ARC
8
0
10
225.575
20
-107.8
40
0.5
50
0
51
90
0
ARC
8
0
10
212.575
20
-120.8
40
0.5
50
180
51
270
0
ARC
8
0
10
225.575
20
-120.8
40
0.5
50
270
51
0
0
LINE
8
0
10
231.625
20
-107.3
11
244.625
21
-107.3
0
LINE
8
0
10
231.625
20
-121.3
11
244.625
21
-121.3
0
LINE
8
0
10
231.125
20
-107.8
11
231.125
21
-120.8
0
LINE
8
0
10
245.125
20
-107.8
11
245.125
21
-120.8
0
ARC
8
0
10
231.625
20
-107.8
40
0.5
50
90
51
180
0
ARC
8
0
10
244.625
20
-107.8
40
0.5
50
0
51
90
0
ARC
8
0
10
231.625
20
-120.8
40
0.5
50
180
51
270
0
ARC
8
0
10
244.625
20
-120.8
40
0.5
50
270
51
0
0
LINE
8
0
10
255.4375
20
-112.0625
11
268.4375
21
-112.0625
0
LINE
8
0
10
255.4375
20
-126.0625
11
268.4375
21
-126.0625
0
LINE
8
0
10
254.9375
20
-112.5625
11
254.9375
21
-125.5625
0
LINE
8
0
10
268.9375
20
-112.5625
11
268.9375
21
-125.5625
0
ARC
8
0
10
255.4375
20
-112.5625
40
0.5
50
90
51
180
0
ARC
8
0
10
268.4375
20
-112.5625
40
0.5
50
0
51
90
0
ARC
8
0
10
255.4375
20
-125.5625
40
0.5
50
180
51
270
0
ARC
8
0
10
268.4375
20
-125.5625
40
0.5
50
270
51
0
0
LINE
8
0
10
274.4875
20
-112.0625
11
287.4875
21
-112.0625
0
LINE
8
0
10
274.4875
20
-126.0625
11
287.4875
21
-126.0625
0
LINE
8
0
10
273.9875
20
-112.5625
11
273.9875
21
-125.5625
0
LINE
8
0
10
287.9875
20
-112.5625
11
287.9875
21
-125.5625
0
ARC
8
0
10
274.4875
20
-112.5625
40
0.5
50
90
51
180
0
ARC
8
0
10
287.4875
20
-112.5625
40
0.5
50
0
51
90
0
ARC
8
0
10
274.4875
20
-125.5625
40
0.5
50
180
51
270
0
ARC
8
0
10
287.4875
20
-125.5625
40
0.5
50
270
51
0
0
LINE
8
0
10
293.5375
20
-112.0625
11
306.5375
21
-112.0625
0
LINE
8
0
10
293.5375
20
-126.0625
11
306.5375
21
-126.0625
0
LINE
8
0
10
293.0375
20
-112.5625
11
293.0375
21
-125.5625
0
LINE
8
0
10
307.0375
20
-112.5625
11
307.0375
21
-125.5625
0
ARC
8
0
10
293.5375
20
-112.5625
40
0.5
50
90
51
180
0
ARC
8
0
10
306.5375
20
-112.5625
40
0.5
50
0
51
90
0
ARC
8
0
10
293.5375
20
-125.5625
40
0.5
50
180
51
270
0
ARC
8
0
10
306.5375
20
-125.5625
40
0.5
50
270
51
0
0
LINE
8
0
10
0
20
-128.5875
11
314.325
21
-128.5875
0
LINE
8
0
10
0
20
0
11
314.325
21
0
0
LINE
8
0
10
0
20
-128.5875
11
0
21
0
0
LINE
8
0
10
314.325
20
-128.5875
11
314.325
21
0
0
ENDSEC
0
EOF